PathFileType	4	(X/Y/Z)	path1_13_0-574.trc
DataRate	CameraRate	NumFrames	NumMarkers	Units	OrigDataRate	OrigDataStartFrame	OrigNumFrames
30	30	8	22	m	30	215	574
Frame#	Time	Hip			RHip			RKnee			RAnkle			RBigToe			RSmallToe			RHeel			LHip			LKnee			LAnkle			LBigToe			LSmallToe			LHeel			Neck			Head			Nose			RShoulder			RElbow			RWrist			LShoulder			LElbow			LWrist		
		X1	Y1	Z1	X2	Y2	Z2	X3	Y3	Z3	X4	Y4	Z4	X5	Y5	Z5	X6	Y6	Z6	X7	Y7	Z7	X8	Y8	Z8	X9	Y9	Z9	X10	Y10	Z10	X11	Y11	Z11	X12	Y12	Z12	X13	Y13	Z13	X14	Y14	Z14	X15	Y15	Z15	X16	Y16	Z16	X17	Y17	Z17	X18	Y18	Z18	X19	Y19	Z19	X20	Y20	Z20	X21	Y21	Z21	X22	Y22	Z22
216	7.2	-2.5144825490502116	0.8392355005663631	-0.5823097712132775	-2.5193979507462805	0.8006794989613474	-0.5033431392992442	-2.5010214631413836	0.4737639971597494	-0.48717177492623154	-2.561514963491637	0.10143438280486121	-0.5125006762241442	-2.366230454728956	0.02484854425564617	-0.4796929229841109	-2.4088344406047817	0.024743164608102386	-0.4186950575998208	-2.605874227409656	0.03455282285357526	-0.5139393160571086	-2.5118304181466855	0.7970401806394173	-0.6651157111026392	-2.5229548035618166	0.43622954222697374	-0.6518104623949325	-2.549557750915527	0.10439686780446039	-0.6537169230678272	-2.3886187207938656	0.01820413723224564	-0.6683666613488342	-2.41956698337926	0.02572537841234388	-0.722670940172546	-2.596987717179321	0.03439706600486758	-0.6552485642460876	-2.488694443946885	1.4735421224461749	-0.6099507728019782	-2.456840475047132	1.7180190627196188	-0.570458495264178	-2.3550123356717445	1.6063164181150822	-0.597579697507888	-2.538251674154706	1.3712097988618537	-0.4350931244261299	-2.5517696797687197	1.078408443494317	-0.39584977400065113	-2.5257775680097936	0.8510329449193617	-0.37800383470352106	-2.4871272385495846	1.3446083178644084	-0.7781529081517035	-2.544885447087999	1.0703630039177319	-0.7906367057039221	-2.545330743808469	0.8364494847451612	-0.7852007441567693
217	7.233333333333333	-2.514591336094427	0.8392157559260084	-0.5822070774242312	-2.519172233626455	0.8005046898475228	-0.5032797211655904	-2.500686195050444	0.47362083537941035	-0.4870729163184971	-2.559726286338687	0.102920157544969	-0.5097961346497246	-2.367669954203052	0.02606051747013553	-0.4801875945224979	-2.408987122049537	0.024844715170282965	-0.41889979889924045	-2.6063076119049797	0.03433698746030275	-0.5139301138138916	-2.511795831990612	0.7969505781479495	-0.6650331506732674	-2.5231740168581784	0.43612743100720336	-0.6517343195323462	-2.551487990358587	0.1028097270824731	-0.6531297986539409	-2.3888219581860004	0.01891245736519097	-0.6691682071836076	-2.4213869867421702	0.02507457861034899	-0.723212831907136	-2.598529264687892	0.03398790745906823	-0.6555576768264962	-2.488374127383845	1.4736801328414875	-0.6100521629235327	-2.4566089577735517	1.7179473097955222	-0.569912541833347	-2.3548485388938456	1.606234306394819	-0.5976717616597877	-2.5374104834810662	1.3702476582706782	-0.43352591177828637	-2.5513670237009474	1.0785887190127794	-0.3955056085593651	-2.525537704243363	0.8516927258427839	-0.3782874129886138	-2.4871184464546308	1.3442630180709014	-0.778309494800948	-2.5448571129044173	1.0703746296817787	-0.7907175386355917	-2.5448760670616095	0.8360811410168004	-0.7850499553770682
218	7.266666666666667	-2.514701712312956	0.839215847163661	-0.582168563377984	-2.5190283671508737	0.8002979495049707	-0.5030718906555846	-2.500546014699147	0.47341081029870435	-0.4868645592097714	-2.558977184424406	0.1036023546782246	-0.5085067899811796	-2.3683729438583816	0.026603719528095295	-0.4805023242452743	-2.4089811154968177	0.02487723456000317	-0.4191086402058666	-2.6071515444901885	0.03393382532975804	-0.5145640335649901	-2.511706991468202	0.7968818013358979	-0.6648095049784895	-2.5232593689126306	0.436007147321877	-0.6515494396078456	-2.553011936341134	0.101573395629034	-0.6526454711471988	-2.3889267721454175	0.019467731032350714	-0.6698653261530807	-2.422690139379005	0.024568770636756773	-0.72373648937932	-2.5988063539966313	0.034090130440174976	-0.6551825687936959	-2.4880182849007504	1.4737949577677067	-0.6101387691451375	-2.4565105530612494	1.7177496233588136	-0.5696172699763724	-2.354759310524377	1.6062619168894146	-0.5976582968221736	-2.5363150405064943	1.36882456066981	-0.43131101797814014	-2.5517027657554534	1.0786706877378616	-0.3962213980999532	-2.525333598459652	0.8522195166335467	-0.3786072290499072	-2.4871996782407795	1.3439077077583055	-0.7783961939556657	-2.5448275567908825	1.0703452651801422	-0.7905569054301845	-2.5444636616767746	0.8356855668436509	-0.7846615975005665
219	7.3	-2.514824171467705	0.8392796305574924	-0.5822656939647357	-2.5189766629537065	0.8001561203765248	-0.5028372866780917	-2.500593000121291	0.47320980899941933	-0.4865551601025473	-2.559608553371205	0.1031844653888376	-0.5090571856475171	-2.3683132536203066	0.02626833490006796	-0.48059966032038004	-2.4088857460538793	0.024798349734271675	-0.4192961420122302	-2.6075381518445724	0.03377133871502988	-0.514962274880053	-2.5116845663680945	0.7968908887121549	-0.6646095723124666	-2.523293094352916	0.43595709687091055	-0.6515394534083946	-2.554073460614581	0.10073967792701215	-0.6523996540072956	-2.388922520577221	0.019796121089077606	-0.6703469823844072	-2.423338587888253	0.024264248416792852	-0.7242054900836739	-2.598194217698864	0.03449354858596356	-0.6544511715307231	-2.4877379297088646	1.4738221404214153	-0.6101893918223744	-2.4565128291628406	1.7175150783718904	-0.569734940466267	-2.3547117080518145	1.6063859338926818	-0.5975249635178241	-2.5352040257062796	1.3672885354496815	-0.42903970614326303	-2.5516449927776144	1.0788701537611831	-0.3960172625789176	-2.525235640923415	0.8524725591682184	-0.37892356709159947	-2.4874374467586686	1.3436427972173532	-0.7784045834325818	-2.544767471694455	1.070239916177225	-0.7902260829062725	-2.5441495906221605	0.83534611471684	-0.784148603300065
220	7.333333333333333	-2.5149696555691334	0.8394453682066245	-0.5825367009583098	-2.519040523255834	0.8001668876621058	-0.5027176731501759	-2.5007135827135265	0.4730391044317999	-0.4862173632326718	-2.5612334073887526	0.10185972498193582	-0.5109316703968528	-2.3676272551127218	0.025119116390307582	-0.4805790428140491	-2.4088158174057948	0.024595581859576988	-0.4194633437961323	-2.606897892046466	0.034084178149662296	-0.5144734996216742	-2.511810816091124	0.7970572275921524	-0.6646373885498037	-2.5234046718428367	0.43606809816294845	-0.6520804154641356	-2.554994878697336	0.0999850599655854	-0.6523284714500023	-2.388799627997323	0.01990528472505991	-0.6705737099086329	-2.4233463764708665	0.0241590138531613	-0.7245943073170427	-2.5976221831482906	0.034801285695834315	-0.6539084232166376	-2.4876055932285284	1.473731079181969	-0.6101976628131679	-2.456452280729151	1.7173625499718181	-0.5701529025475707	-2.3545730225274686	1.6064814620145202	-0.5970646321044681	-2.534483049885526	1.366281976017424	-0.4276805823497931	-2.550848391515394	1.0791655462246132	-0.39438895024728743	-2.525271513535776	0.8523964785147403	-0.3791787207505025	-2.4878603695621275	1.3435510375012263	-0.7783496446825302	-2.5446613359123105	1.070031004980902	-0.7898181093651702	-2.543968345764518	0.8351131121038768	-0.7836360443642154
221	7.366666666666666	-2.5151351967076288	0.8397067951614272	-0.5829568438180106	-2.5192778687279063	0.8003597183129638	-0.5028325035349497	-2.500792164420265	0.47290329865846614	-0.48592785672638245	-2.562910517226035	0.10023924654953181	-0.5128816991250021	-2.3664982415773856	0.02349295930013283	-0.48057966646283634	-2.408842469375337	0.02428637354468091	-0.41964170671851775	-2.6054203802137135	0.03471258261301112	-0.5130855857235814	-2.5120874297928286	0.7974636130240291	-0.6650141254705373	-2.523677825989177	0.4363561135313394	-0.6534845170366873	-2.556168987220942	0.09893089909608595	-0.6522248723777903	-2.388552488851593	0.019833289801929572	-0.6705772582563293	-2.4227970006680217	0.024222884221589077	-0.7248618933136789	-2.5978108756573133	0.03475490474473078	-0.6538789639345068	-2.487627298472084	1.473526452013824	-0.6101506028543473	-2.4561446052518168	1.7173974969259531	-0.570542369497375	-2.354224165916491	1.6064120000494397	-0.5960902014111812	-2.534368261987231	1.3661005617529962	-0.42762289183274427	-2.5498359572791425	1.0793430391178722	-0.3924007165203603	-2.5254358653021387	0.8520570169511947	-0.3793104993177466	-2.4884458896714263	1.3436623702047346	-0.7782615496274734	-2.5445415554815525	1.0697323090084887	-0.7894240155766573	-2.5439208441079724	0.8349972721602662	-0.783221497254582
222	7.4	-2.5153082909378512	0.8399910403354293	-0.5834775658134277	-2.5197348625605622	0.8007129183976345	-0.5032475999882252	-2.5007610459308696	0.4728210195296343	-0.4857138623487034	-2.563721761582075	0.09901612698075157	-0.5136320134074279	-2.3651597042668935	0.02196245205371025	-0.48064952958394425	-2.4089563761532613	0.023920712812395273	-0.4198788164024724	-2.6037227703230412	0.03529291310695793	-0.5111804706977069	-2.512467950940912	0.7981428801775607	-0.6657382611411313	-2.524147601874488	0.4367462547040293	-0.655806530897703	-2.5578913745303784	0.09732554476562465	-0.6518507957462403	-2.3882037554722433	0.019618603297367962	-0.6704409314308462	-2.421788372747488	0.02444598542271911	-0.7249845592014146	-2.599000901485055	0.03431780260874107	-0.6543616136627498	-2.487764233281659	1.4732344326960878	-0.6100520226735225	-2.4554947767818756	1.7176871807111858	-0.5705434738745048	-2.3536253177917343	1.6061172516058613	-0.5946101249403961	-2.5345898480030757	1.366222089327579	-0.42803346149953925	-2.5489724483340432	1.0793208451803538	-0.3908413603630463	-2.5256904761989847	0.8516151853762242	-0.37931325281093564	-2.48908902223142	1.3439379282807942	-0.7781776550432979	-2.544475402756701	1.0694048981920328	-0.7891297516508665	-2.5439897947689047	0.8349968605270358	-0.782936089722448
223	7.433333333333334	-2.5154903728413434	0.8401992160793925	-0.5840416802555696	-2.5203804000543597	0.8011717864097072	-0.5039197268640462	-2.50061711762741	0.47278951429279953	-0.48556715261618566	-2.5632757236802584	0.09863918076276122	-0.5126129731662602	-2.3638194559624623	0.021110037151171105	-0.4807503297918314	-2.4090908104057904	0.023560182801223514	-0.42019160092615104	-2.602440236445257	0.03550058740158671	-0.5093424245716729	-2.5128942149790467	0.7990077878807106	-0.666683728281538	-2.5247768137807576	0.43711595029944333	-0.6585284067751677	-2.560142209517359	0.09523207811836018	-0.6511137110335059	-2.38783541662739	0.019282593612267123	-0.6702447043102963	-2.42042679422541	0.024851930068108152	-0.72496573907148	-2.6009084862323832	0.033653281462292975	-0.6550517938891652	-2.4879596049047317	1.4729029908103617	-0.6099530877282886	-2.4545660223214343	1.7182117074537424	-0.5699918421480128	-2.3528452015858163	1.6056416872438861	-0.592836757658687	-2.534687333532005	1.3659003347963454	-0.4277794165525488	-2.5479618740831254	1.0792826657182772	-0.389241024439664	-2.5259616095128394	0.8512280899236581	-0.3792342833930801	-2.489615216427398	1.344291447415434	-0.7781365219831688	-2.544517252747439	1.0691156754818514	-0.7889965702692121	-2.544154948041886	0.835100203981568	-0.7827411327609989
